<svg width="47" height="42" viewBox="0 0 47 42" fill="none" xmlns="http://www.w3.org/2000/svg">
<path d="M19.0332 2.50937C20.9553 -0.836462 25.7822 -0.836456 27.7043 2.50938L46.0657 34.4717C47.9805 37.8051 45.5743 41.9624 41.7301 41.9624H5.00742C1.16323 41.9624 -1.24299 37.8051 0.671897 34.4717L19.0332 2.50937Z" fill="#FF808F"/>
<path d="M20.3688 14.9624C20.3688 13.3055 21.7119 11.9624 23.3688 11.9624C25.0256 11.9624 26.3688 13.3055 26.3688 14.9624V22.9624C26.3688 24.6192 25.0256 25.9624 23.3688 25.9624C21.7119 25.9624 20.3688 24.6192 20.3688 22.9624V14.9624Z" fill="white"/>
<path d="M26.3688 31.9624C26.3688 33.6192 25.0256 34.9623 23.3688 34.9623C21.7119 34.9623 20.3688 33.6192 20.3688 31.9624C20.3688 30.3055 21.7119 28.9624 23.3688 28.9624C25.0256 28.9624 26.3688 30.3055 26.3688 31.9624Z" fill="white"/>
</svg>
