<svg width="87" height="82" viewBox="0 0 87 82" fill="none" xmlns="http://www.w3.org/2000/svg">
<g filter="url(#filter0_d_2057_6963)">
<path d="M39.0332 22.5094C40.9553 19.1635 45.7822 19.1635 47.7043 22.5094L66.0657 54.4717C67.9805 57.8051 65.5743 61.9624 61.7301 61.9624H25.0074C21.1632 61.9624 18.757 57.805 20.6719 54.4717L39.0332 22.5094Z" fill="#FF808F"/>
<path d="M40.3688 34.9624C40.3688 33.3055 41.7119 31.9624 43.3688 31.9624C45.0256 31.9624 46.3688 33.3055 46.3688 34.9624V42.9624C46.3688 44.6192 45.0256 45.9624 43.3688 45.9624C41.7119 45.9624 40.3688 44.6192 40.3688 42.9624V34.9624Z" fill="white"/>
<path d="M46.3688 51.9624C46.3688 53.6192 45.0256 54.9623 43.3688 54.9623C41.7119 54.9623 40.3688 53.6192 40.3688 51.9624C40.3688 50.3055 41.7119 48.9624 43.3688 48.9624C45.0256 48.9624 46.3688 50.3055 46.3688 51.9624Z" fill="white"/>
</g>
<defs>
<filter id="filter0_d_2057_6963" x="0" y="0" width="86.7383" height="81.9624" filterUnits="userSpaceOnUse" color-interpolation-filters="sRGB">
<feFlood flood-opacity="0" result="BackgroundImageFix"/>
<feColorMatrix in="SourceAlpha" type="matrix" values="0 0 0 0 0 0 0 0 0 0 0 0 0 0 0 0 0 0 127 0" result="hardAlpha"/>
<feOffset/>
<feGaussianBlur stdDeviation="10"/>
<feComposite in2="hardAlpha" operator="out"/>
<feColorMatrix type="matrix" values="0 0 0 0 1 0 0 0 0 0.27487 0 0 0 0 0.360515 0 0 0 0.5 0"/>
<feBlend mode="normal" in2="BackgroundImageFix" result="effect1_dropShadow_2057_6963"/>
<feBlend mode="normal" in="SourceGraphic" in2="effect1_dropShadow_2057_6963" result="shape"/>
</filter>
</defs>
</svg>
