<svg width="132" height="38" viewBox="0 0 132 38" fill="none" xmlns="http://www.w3.org/2000/svg">
<path d="M20.0949 38C18.2387 38 16.8265 37.558 15.858 36.6741C14.9098 35.7901 14.3247 34.4843 14.1027 32.7565C14.0422 32.194 13.9817 31.511 13.9212 30.7074C13.8808 29.9038 13.8405 29.0399 13.8001 28.1158C13.7799 27.1716 13.7598 26.1872 13.7396 25.1626C13.7194 24.1179 13.6992 23.0732 13.6791 22.0285C13.6791 20.9638 13.6791 19.9191 13.6791 18.8945C13.6791 17.8699 13.6791 16.8956 13.6791 15.9715C13.6791 14.4848 13.5277 13.4401 13.2251 12.8374C12.9427 12.2146 12.2668 11.9033 11.1975 11.9033C10.108 11.9033 9.02858 11.9836 7.95928 12.1443C6.88997 12.305 5.7904 12.3854 4.66056 12.3854C3.75266 12.3854 2.94564 12.1845 2.23949 11.7827C1.53335 11.3809 0.978517 10.8084 0.575005 10.065C0.191668 9.30161 0 8.40761 0 7.38303C0 6.19773 0.464039 5.18319 1.39212 4.33941C2.32019 3.47555 3.58117 2.76236 5.17504 2.19984C6.76892 1.63732 8.56454 1.19535 10.5619 0.873907C12.5593 0.552471 14.6374 0.331483 16.7962 0.210943C18.955 0.0703143 21.0432 0 23.0607 0C24.8967 0 26.7226 0.0301338 28.5384 0.0904015C30.3542 0.150672 32.0691 0.301347 33.6832 0.542427C35.3174 0.783505 36.76 1.16521 38.0108 1.68755C39.2819 2.1898 40.2806 2.87285 41.0069 3.73672C41.7332 4.60058 42.0964 5.70552 42.0964 7.05155C42.0964 8.25694 41.8946 9.28152 41.4911 10.1253C41.1078 10.949 40.5227 11.5818 39.7359 12.0238C38.9692 12.4658 38.0209 12.6868 36.8911 12.6868C35.7411 12.6868 34.8937 12.6767 34.349 12.6566C33.8244 12.6164 33.1687 12.5964 32.3818 12.5964C31.2924 12.5964 30.4853 12.737 29.9608 13.0182C29.4362 13.2794 29.0831 13.7515 28.9016 14.4346C28.7402 15.1176 28.6191 16.0819 28.5384 17.3275C28.498 18.0708 28.4476 18.8443 28.3871 19.6479C28.3265 20.4314 28.2559 21.245 28.1752 22.0888C28.0945 22.9125 27.9937 23.7462 27.8726 24.59C27.7515 25.4338 27.6305 26.2575 27.5094 27.0611C27.3884 27.8647 27.2572 28.6381 27.116 29.3814C26.9748 30.1248 26.8134 30.8279 26.6318 31.4909C26.4704 32.1338 26.309 32.7164 26.1476 33.2387C25.6432 34.3838 25.1489 35.308 24.6647 36.0111C24.1805 36.7142 23.5853 37.2165 22.8791 37.5178C22.173 37.8393 21.2449 38 20.0949 38Z" fill="#408FFF"/>
<path d="M65.5907 37.5781C60.7889 37.5781 56.7841 36.3727 53.5762 33.9619C50.3884 31.5311 48.0783 28.2966 46.6458 24.2585C46.4239 23.5554 46.2121 22.8422 46.0103 22.119C45.8287 21.3957 45.6673 20.6624 45.5261 19.9191C45.405 19.1557 45.2941 18.3722 45.1932 17.5686C45.1125 16.765 45.052 15.9514 45.0116 15.1277C44.9713 14.304 44.9511 13.4703 44.9511 12.6265C44.9511 10.0148 45.2235 7.85514 45.7682 6.1475C46.3129 4.43986 47.2007 3.16416 48.4314 2.32038C49.6621 1.45651 51.2963 1.02458 53.3341 1.02458C54.706 1.02458 55.8358 1.32593 56.7236 1.92863C57.6315 2.51123 58.3073 3.47555 58.7512 4.82157C59.1951 6.1475 59.417 7.94554 59.417 10.2157C59.417 10.8787 59.4271 11.5517 59.4473 12.2347C59.4674 12.8977 59.4977 13.5506 59.5381 14.1935C59.5784 14.8163 59.6288 15.429 59.6894 16.0317C59.7701 16.6344 59.8609 17.217 59.9617 17.7795C60.0828 18.322 60.224 18.8343 60.3854 19.3164C60.8091 20.7026 61.4245 21.8176 62.2315 22.6614C63.0587 23.5052 64.1784 23.927 65.5907 23.927C66.5188 23.927 67.3359 23.7362 68.0421 23.3545C68.7482 22.9527 69.3535 22.4203 69.8579 21.7573C70.3824 21.0743 70.8061 20.2807 71.1289 19.3767C71.371 18.7539 71.5728 18.0909 71.7342 17.3878C71.9158 16.6646 72.0469 15.9212 72.1276 15.1578C72.2285 14.3743 72.2991 13.5808 72.3395 12.7772C72.4 11.9736 72.4303 11.18 72.4303 10.3965C72.4303 8.16653 72.6925 6.37853 73.2171 5.03251C73.7618 3.68649 74.5588 2.71213 75.6079 2.10944C76.6571 1.48665 77.9483 1.17526 79.4816 1.17526C81.2369 1.17526 82.5786 1.57705 83.5067 2.38065C84.4549 3.16415 85.1005 4.37959 85.4435 6.02696C85.8067 7.67433 85.9883 9.76368 85.9883 12.295C85.9883 13.199 85.958 14.083 85.8975 14.9469C85.8571 15.7906 85.7865 16.6244 85.6856 17.4481C85.5848 18.2717 85.4536 19.0854 85.2922 19.889C85.151 20.6725 84.9795 21.4459 84.7777 22.2094C84.576 22.9527 84.344 23.6759 84.0817 24.3791C83.1133 27.0912 81.7615 29.4317 80.0264 31.4005C78.3115 33.3693 76.2435 34.8961 73.8224 35.981C71.4013 37.0457 68.6574 37.5781 65.5907 37.5781Z" fill="#408FFF"/>
<path d="M109.998 38C108.142 38 106.73 37.558 105.762 36.6741C104.813 35.7901 104.228 34.4843 104.006 32.7565C103.946 32.194 103.885 31.511 103.825 30.7074C103.784 29.9038 103.744 29.0399 103.704 28.1158C103.684 27.1716 103.663 26.1872 103.643 25.1626C103.623 24.1179 103.603 23.0732 103.583 22.0285C103.583 20.9638 103.583 19.9191 103.583 18.8945C103.583 17.8699 103.583 16.8956 103.583 15.9715C103.583 14.4848 103.431 13.4401 103.129 12.8374C102.846 12.2146 102.17 11.9033 101.101 11.9033C100.012 11.9033 98.9322 11.9836 97.8629 12.1443C96.7936 12.305 95.694 12.3854 94.5642 12.3854C93.6563 12.3854 92.8492 12.1845 92.1431 11.7827C91.4369 11.3809 90.8821 10.8084 90.4786 10.065C90.0953 9.30161 89.9036 8.40761 89.9036 7.38303C89.9036 6.19773 90.3676 5.18319 91.2957 4.33941C92.2238 3.47555 93.4848 2.76236 95.0786 2.19984C96.6725 1.63732 98.4681 1.19535 100.466 0.873907C102.463 0.552471 104.541 0.331483 106.7 0.210943C108.859 0.0703143 110.947 0 112.964 0C114.8 0 116.626 0.0301338 118.442 0.0904015C120.258 0.150672 121.973 0.301347 123.587 0.542427C125.221 0.783505 126.664 1.16521 127.914 1.68755C129.186 2.1898 130.184 2.87285 130.911 3.73672C131.637 4.60058 132 5.70552 132 7.05155C132 8.25694 131.798 9.28152 131.395 10.1253C131.011 10.949 130.426 11.5818 129.639 12.0238C128.873 12.4658 127.925 12.6868 126.795 12.6868C125.645 12.6868 124.797 12.6767 124.253 12.6566C123.728 12.6164 123.072 12.5964 122.285 12.5964C121.196 12.5964 120.389 12.737 119.864 13.0182C119.34 13.2794 118.987 13.7515 118.805 14.4346C118.644 15.1176 118.523 16.0819 118.442 17.3275C118.402 18.0708 118.351 18.8443 118.291 19.6479C118.23 20.4314 118.16 21.245 118.079 22.0888C117.998 22.9125 117.897 23.7462 117.776 24.59C117.655 25.4338 117.534 26.2575 117.413 27.0611C117.292 27.8647 117.161 28.6381 117.02 29.3814C116.878 30.1248 116.717 30.8279 116.535 31.4909C116.374 32.1338 116.213 32.7164 116.051 33.2387C115.547 34.3838 115.052 35.308 114.568 36.0111C114.084 36.7142 113.489 37.2165 112.783 37.5178C112.077 37.8393 111.149 38 109.998 38Z" fill="#408FFF"/>
</svg>
